PathFileType	4	(X/Y/Z)	C:\Users\WrightLab\Desktop\Jo\P5V33.trc
DataRate	CameraRate	NumFrames	NumMarkers	Units	OrigDataRate	OrigDataStartFrame	OrigNumFrames
100.00	100.00	      22	19	mm	100.00	667	      1066
Frame#	Time	Headset_Front			Headset_Back			Headset_Left			Headset_Right			Left_Shoulder			Right_Shoulder			Sternum			C7			Left Elbow			Right Elbow			Left Wrist			Right Wrist			Left ASIS			Right ASIS			S2			Left Knee			Right Knee			Left Ankle			Right Ankle			
		X1	Y1	Z1	X2	Y2	Z2	X3	Y3	Z3	X4	Y4	Z4	X5	Y5	Z5	X6	Y6	Z6	X7	Y7	Z7	X8	Y8	Z8	X9	Y9	Z9	X10	Y10	Z10	X11	Y11	Z11	X12	Y12	Z12	X13	Y13	Z13	X14	Y14	Z14	X15	Y15	Z15	X16	Y16	Z16	X17	Y17	Z17	X18	Y18	Z18	X19	Y19	Z19	

667	6.660	385.46161	1623.38550	705.66187	433.13351	1553.70435	578.89545							162.24675	1497.53308	448.01822	222.57904	1480.58789	857.06677	283.83768	1333.47668	663.83539	73.42138	1532.22107	677.83093	289.50168	1275.50439	440.12131	201.69992	1232.27173	970.45697	101.40865	1218.59180	383.28055	410.69269	1209.31189	880.40320	298.93491	934.33044	551.61224	295.42920	972.36658	834.51544	1.01417	973.82422	677.13702	246.44722	488.63635	578.86951	306.91238	540.99902	875.51166	-1.64557	137.68680	549.66302	256.76486	127.88944	928.47839	
668	6.670	392.91034	1624.15161	706.06946	437.46008	1554.88599	577.06940							164.21193	1499.01929	452.45840	231.93832	1481.13843	859.65131	289.28372	1334.73511	665.64209	79.77583	1533.05334	683.77252	290.86789	1276.48352	441.56985	211.56979	1232.40515	973.06201	100.88006	1220.65942	388.37469	419.37009	1208.87000	880.07788	301.28494	935.60071	552.78955	303.41263	972.68988	834.99469	6.65785	974.86829	684.14417	251.38960	489.01535	585.67126	312.00568	541.56000	877.74823	2.98586	143.94122	552.41809	257.20282	127.70172	928.96326	
669	6.680	400.00128	1625.47351	706.28278	441.54636	1556.06262	575.65771							166.24548	1500.30750	456.68692	241.13730	1481.68311	863.69409	295.26276	1335.75378	667.60889	86.43336	1533.86108	689.52466	292.74063	1277.61621	442.90564	221.99934	1231.67310	975.72601	100.50965	1221.68066	394.07724	428.42581	1208.61829	880.03497	303.74222	936.69147	552.72626	311.80460	973.31799	835.41272	12.78175	975.51422	690.10272	256.60196	489.79041	591.87323	317.04642	541.86432	879.42932	8.13247	150.56021	555.70306	257.65115	127.80579	928.85260	
670	6.690	407.13528	1626.06702	706.15369	445.93921	1556.86487	574.11249							168.30289	1501.87280	460.88925	251.64641	1481.78357	867.18677	300.32141	1336.52979	668.97443	92.97204	1534.50269	695.30756	293.72778	1278.36816	444.26868	231.76358	1231.32751	978.27490	100.78634	1223.20654	397.70270	436.57825	1207.90051	878.89996	305.70358	936.99585	553.27362	320.55405	973.78198	835.23560	18.80485	976.59583	695.99615	262.06689	490.89017	597.49585	320.61380	542.01715	881.55170	13.66702	155.99770	558.98212	257.67102	127.77803	929.00616	
671	6.700	411.55719	1626.97827	700.13843	450.21982	1557.79126	572.00653							170.02396	1503.21387	465.00937	260.58755	1481.91321	868.85992	305.62045	1336.87854	670.39020	99.38984	1535.41040	700.80566	294.61285	1279.56067	445.01389	240.99298	1231.32214	980.82666	100.45651	1224.74585	404.31274	445.21408	1207.70532	878.97272	307.23651	937.84973	554.43176	327.98288	973.89679	835.39087	24.86909	977.14929	701.68231	267.77158	492.52859	602.03058	324.42624	542.37018	884.21820	19.85124	161.89677	562.12408	258.18887	127.31422	929.02527	
672	6.710	419.16010	1626.92590	698.43359	451.39542	1559.06494	568.25220							171.85146	1504.65393	468.86057	270.85632	1481.65491	870.65002	310.99268	1337.46985	671.32080	106.00415	1536.27441	706.02454	295.95956	1280.66736	446.37881	251.16350	1231.13416	983.27014	102.15414	1226.05286	407.47336	453.38315	1206.87134	877.38733	309.51477	938.36011	554.65869	336.66510	974.21600	834.94141	30.87226	978.49982	707.29120	273.17752	494.30704	606.43884	328.49005	542.26898	886.56775	25.80372	168.55653	566.18011	258.02194	127.42477	929.24060	
673	6.720	424.77823	1627.06250	696.84015	455.00000	1559.99426	565.31598							173.78125	1505.91138	472.40787	280.11719	1481.39783	872.05652	316.59052	1337.56921	672.03491	112.47304	1537.26465	711.07574	296.44687	1281.56909	447.05161	261.24658	1230.85864	985.01764	100.52491	1228.15503	412.94815	462.78143	1206.86572	876.87750	311.24973	938.38300	554.56250	344.62045	974.04022	834.24030	37.22589	979.24286	712.83356	279.50769	496.32159	609.63867	331.85626	540.93256	889.15704	31.31017	175.09793	569.68597	258.64963	126.84830	929.18091	
674	6.730	432.22296	1627.76575	695.94196	458.46426	1560.70923	562.67218							175.41391	1507.25037	476.02634	290.19492	1481.29590	873.23865	321.32639	1337.52832	671.89319	118.83598	1538.19812	716.02191	297.86304	1282.57947	448.46042	271.70322	1231.09180	986.64075	102.13626	1229.09863	415.60483	470.88962	1205.94275	875.03357	312.42883	938.83923	554.62787	352.10172	974.09277	832.43518	43.47999	979.93036	718.19800	287.54553	498.73184	608.57855	333.71753	539.37567	891.46332	36.84893	182.65445	573.90985	258.83533	126.73267	929.38861	
675	6.740	439.40549	1628.85071	694.05304	462.13489	1561.18372	560.39728							177.35242	1508.31653	479.27811	298.89069	1481.33838	873.94452	326.48651	1338.25525	671.94934	125.74927	1539.01282	720.43909	298.70444	1283.35742	449.26959	282.97128	1231.02686	988.15936	101.96909	1230.66052	419.79343	480.50259	1205.33447	874.39404	313.93622	939.12537	554.29889	359.43048	974.41663	831.42529	49.47625	981.01550	723.55310	295.85165	501.79889	604.64380	336.25522	538.41998	894.55310	42.66439	189.46251	576.78168	258.89206	126.75945	929.43073	
676	6.750	444.71671	1629.05701	692.05719	465.25378	1562.08118	557.60248							179.40889	1509.53027	482.46820	308.63852	1480.97058	874.36212	330.99268	1338.80640	670.11487	132.15082	1539.93982	724.64709	299.65689	1284.46558	450.19577	293.00345	1230.78955	989.55408	102.30338	1232.61121	423.29266	488.01440	1202.08264	870.27985	315.21719	939.34015	553.86176	366.61627	973.76807	829.83533	55.35662	982.31378	728.73169	303.86441	504.55234	600.50336	336.86533	535.80243	896.06970	47.86924	196.67775	582.00342	259.03946	126.80548	929.46100	
677	6.760	452.18399	1629.64050	689.29327	468.48114	1562.23193	554.32318							181.34779	1510.74817	485.61859	317.91101	1480.83472	875.27704	335.36719	1338.98645	670.71729	138.75140	1540.91699	728.55780	300.67783	1285.12280	450.64957	304.02332	1231.40796	990.51019	102.66644	1233.49280	427.22055	496.72968	1201.61084	868.52692	316.31723	939.95703	552.58350	372.14154	973.60870	828.36487	61.07890	983.53125	733.51215	311.68900	506.07736	595.97308	338.77249	533.57465	898.28906	54.36319	202.67540	586.20209	259.24753	126.84196	929.45532	
678	6.770	457.73462	1629.10266	686.30273	471.59708	1562.47571	551.44684							183.46283	1511.91418	488.60718	326.67639	1480.78101	875.14624	339.71014	1338.94153	669.48090	145.26465	1541.91931	732.18365	301.83005	1286.04639	451.26001	315.54544	1231.16235	990.87079	103.04364	1235.27136	430.97855	505.77914	1201.24988	865.83179	317.12830	940.22589	551.68542	378.40546	973.31171	825.81641	66.38863	984.60083	738.69135	319.72018	506.59543	592.03625	340.71933	532.26617	901.24176	60.46206	208.86394	591.55841	259.66666	126.79971	929.37103	
679	6.780	464.65359	1628.79517	684.45813	474.82904	1562.12463	548.23291							185.43379	1513.14197	491.64838	336.17712	1480.78906	875.50323	343.97916	1339.27673	669.62000	151.77477	1543.06946	735.90552	302.45538	1286.79431	451.94354	326.00735	1231.59558	991.22223	101.62784	1236.88611	435.20837	514.00409	1200.58875	862.03931	317.68155	940.75195	550.35266	384.51260	972.99615	823.86401	71.54099	986.03455	743.56348	327.13269	507.53717	588.14929	341.76950	530.37744	903.26587	68.37881	214.14424	596.45020	259.80914	127.30295	929.42822	
680	6.790	469.23062	1627.41943	681.32385	478.32587	1561.62036	546.43054							187.49780	1514.19397	494.48776	344.96750	1480.66162	875.09686	348.32617	1339.49426	669.48029	158.33737	1544.03015	739.35266	303.28629	1287.39160	452.72510	337.12088	1232.00232	991.31525	103.84858	1238.42578	438.67926	522.84814	1201.94958	860.02087	318.24210	941.61957	549.42212	389.38745	972.35876	821.63794	77.87821	986.73645	748.44751	333.51056	507.62018	585.27319	344.20081	529.23187	906.52594	77.22153	218.09413	601.90735	260.26227	127.33649	929.35010	
681	6.800	476.69141	1627.88428	679.58893	481.35895	1560.97595	542.87634							189.62933	1515.35083	497.28854	353.86536	1481.27380	875.41357	353.74640	1339.35132	669.33136	165.27986	1544.84802	742.53809	303.82230	1288.20837	453.01843	348.22775	1232.12744	990.86487	104.21464	1239.56470	442.05341	532.19794	1200.71301	854.61658	318.56754	942.22607	548.58966	395.46811	972.05872	819.31586	83.90894	987.75928	752.79895	340.65836	508.79288	581.37787	345.84457	528.53467	909.41882	86.39180	221.58626	607.06586	260.59106	127.63394	929.13715	
682	6.810	481.61639	1627.27625	675.62012	484.22345	1560.44092	540.63544							191.64980	1516.29395	499.92767	361.94907	1481.18103	874.05737	358.12274	1339.81091	668.92664	171.75732	1545.70386	745.79810	304.86938	1288.97058	453.44632	358.40021	1232.84448	990.29187	104.66435	1241.90918	445.57300	538.21942	1199.74878	851.28693	319.59021	943.22284	547.42438	401.44263	972.00354	816.46838	88.13049	989.67236	757.23425	347.74057	509.37329	577.75970	347.00391	526.99658	911.43817	96.79745	223.17319	610.97955	260.89340	127.58437	929.17407	
683	6.820	488.42108	1626.46631	672.71954	487.13159	1559.48633	537.53784							193.73334	1517.27478	502.44656	370.57388	1481.32715	873.26605	362.72971	1340.24805	668.12964	177.95375	1546.80847	748.48755	305.52280	1290.13977	453.54672	369.44580	1232.91980	989.80267	104.56161	1243.17700	447.58362	546.12006	1199.61279	846.78571	320.48749	943.92169	546.70526	406.32538	971.97034	814.30298	94.13597	990.32361	761.63867	354.73297	510.97397	574.77795	349.12372	526.81775	914.13452	108.21820	223.85297	615.18829	261.16971	127.79442	928.85840	
684	6.830	493.55988	1625.07117	669.70013	489.70868	1558.34912	533.80554							195.74562	1518.17322	505.02509	379.83115	1482.24048	872.92694	367.60162	1340.48669	667.60089	184.10120	1548.31519	751.19086	305.90564	1290.52100	453.69940	380.36508	1233.32581	989.45001	105.82240	1243.98926	452.39612	554.09625	1199.44348	842.94696	322.10727	944.61566	546.26935	410.97504	971.59247	812.33826	99.96435	991.25830	765.50079	362.14001	512.65082	571.69714	350.83078	525.88055	915.84088	121.01646	223.45078	618.30737	261.47049	127.83199	928.72668	
685	6.840	499.72577	1624.17212	667.16901	492.74442	1556.88196	531.23938							198.17639	1518.91748	507.17130	388.27130	1482.53296	872.07648	372.14304	1340.83911	666.90222	190.43854	1549.00000	753.56494	306.36362	1291.58630	453.80212	390.85571	1233.31335	987.26630	106.14190	1245.43347	455.61407	561.51965	1198.68896	838.14746	323.97812	945.60052	545.34058	416.02072	971.34094	810.33167	106.20469	992.15497	768.84393	366.73477	515.39862	568.87097	353.86276	526.17004	919.14215	133.25864	222.73055	620.90173	261.72513	127.94978	928.67627	
686	6.850	505.23737	1622.78271	664.45630	495.34589	1555.32751	527.83527							200.39459	1519.52039	509.39236	396.72540	1482.69080	870.67273	376.41791	1340.79517	665.63055	197.41731	1549.26038	755.93860	306.61499	1291.99121	453.34561	402.14883	1233.53870	986.44012	107.03671	1245.90222	459.56833	569.23059	1198.38525	833.71985	325.65558	946.37579	545.05786	421.53876	971.50769	808.13000	111.89577	993.24310	772.21082	373.01859	518.63605	565.19861	355.43179	525.44818	920.52087	146.43987	219.80077	623.57813	261.88596	128.12131	928.62628	
687	6.860	510.05032	1621.55273	660.26202	498.17810	1553.73816	525.20032							203.03575	1520.06311	511.35666	405.00748	1482.67859	870.31342	380.92001	1340.86035	665.22925	204.26236	1549.37805	757.56189	307.53506	1292.63550	453.32660	411.65338	1233.88672	983.56171	107.47829	1247.46704	462.09332	576.47394	1198.18591	828.72388	327.16571	946.79877	544.98846	425.34586	970.74609	806.61694	117.65775	994.52960	775.43958	378.04703	521.90588	561.32941	359.64133	526.18445	922.44775	161.24963	216.28445	624.63025	262.02716	128.34584	928.51306	
688	6.870	515.89044	1620.36682	656.30304	500.78156	1551.92798	522.75037							205.41962	1520.58801	513.28894	413.27557	1483.02490	868.82080	384.16074	1340.33911	664.93365	210.46399	1550.43555	759.38855	307.77795	1292.69971	452.49600	422.25876	1234.53308	983.71777	108.15863	1248.40417	466.97684	583.46893	1198.33008	823.11176	329.06241	947.30457	544.94775	429.98792	970.81232	805.44177	123.13551	995.79419	778.75970	383.49551	524.98462	557.75061	363.08722	526.43005	924.32697	175.62686	212.85583	624.71423	262.39075	128.36951	928.08704	
